<?xml version="1.0" encoding="iso-8859-1"?>
<!-- Uploaded to: SVG Repo, www.svgrepo.com, Generator: SVG Repo Mixer Tools -->
<svg height="800px" width="800px" version="1.1" id="Layer_1" xmlns="http://www.w3.org/2000/svg" xmlns:xlink="http://www.w3.org/1999/xlink" 
	 viewBox="0 0 512 512" xml:space="preserve">
<g>
	<path style="fill:#77DD00;" d="M26.587,481.151c-5.713-8.456-9.049-18.649-9.049-29.621c0-29.261,23.72-52.979,52.979-52.979
		l0.004,69.536L26.587,481.151z"/>
	<path style="fill:#77DD00;" d="M485.371,481.835c5.713-8.456,9.049-18.649,9.049-29.621c0-29.26-23.72-52.979-52.979-52.979v68.799
		L485.371,481.835z"/>
	<path style="fill:#77DD00;" d="M441.412,358.189c4.674-2.72,10.106-4.277,15.903-4.277c17.478,0,31.65,14.17,31.65,31.652
		c0,10.443-5.055,19.705-12.858,25.47l-34.666-12.972L441.412,358.189z"/>
</g>
<path style="fill:#956EC4;" d="M494.411,503.207H17.593l0,0c0-19.507,15.812-35.32,35.32-35.32h406.178
	C478.597,467.888,494.411,483.7,494.411,503.207L494.411,503.207z"/>
<path style="fill:#B77FD8;" d="M95.405,467.888H52.909c-19.503,0-35.32,15.815-35.32,35.32h42.496
	C60.084,483.701,75.899,467.888,95.405,467.888z"/>
<path style="fill:#6D2C92;" d="M459.091,467.888h-76.894c19.509,0,35.319,15.815,35.319,35.32h76.894
	C494.411,483.701,478.597,467.888,459.091,467.888z"/>
<path style="fill:#E0E0E3;" d="M441.398,467.888H70.604V194.191c0-102.392,83.005-185.397,185.397-185.397l0,0
	c102.391,0,185.396,83.005,185.396,185.397V467.888z"/>
<path style="fill:#C7C5CC;" d="M256.002,8.793c-8.62,0-17.096,0.601-25.403,1.74c90.37,12.385,159.993,89.884,159.993,183.657
	v273.697h50.805V194.191C441.398,91.798,358.393,8.793,256.002,8.793z"/>
<path d="M240.995,358.108c1.536,4.398-0.913,9.097-5.364,10.615c-0.62,0.156-1.845,0.456-3.38,0.456c0,0,0,0-0.156,0
	c-1.535,0-3.829-0.3-5.968-1.664c-1.999-1.215-3.69-3.191-4.915-5.312c-2.139-4.398-3.225-9.865-3.225-18.211
	c-0.138-2.881-0.76-4.846-1.828-6.52c-0.931-1.672-2.76-3.189-4.605-4.398c-3.224-2.13-7.209-3.338-8.588-3.638h-18.09v32.913
	c0,4.552-3.829,8.348-8.588,8.348c-4.744,0-8.434-3.795-8.434-8.348v-89.506c0-4.699,3.691-8.348,8.434-8.348c0,0,0,0,0.156,0
	h27.301c18.246,0,32.802,14.564,32.802,32.621c0,10.011-4.605,18.815-11.953,24.878c1.983,1.517,3.829,3.336,5.363,5.612
	c3.072,4.408,5.054,10.021,5.054,16.385c-0.155,4.552,0.31,7.443,0.62,8.958C238.08,353.702,240.081,355.53,240.995,358.108z
	 M219.523,297.117c0-8.797-7.053-15.781-15.78-15.781h-18.868v31.258h18.868C212.47,312.595,219.523,305.61,219.523,297.117z"/>
<path d="M256.033,272.845c0-4.699,3.673-8.348,8.433-8.348c4.605,0,8.59,3.649,8.59,8.348v89.506c0,4.708-3.984,8.348-8.59,8.348
	c-4.759,0-8.433-3.639-8.433-8.348V272.845z"/>
<path d="M327.604,329.438h-18.867v32.913c0,4.552-3.829,8.348-8.573,8.348c-4.604,0-8.432-3.795-8.432-8.348v-89.506
	c0-4.699,3.829-8.348,8.432-8.348h0.156h27.283c18.246,0,32.974,14.564,32.974,32.621
	C360.578,314.864,345.85,329.438,327.604,329.438z M308.738,312.595h18.867c8.899,0,15.798-6.984,15.954-15.477
	c-0.156-8.797-7.056-15.781-15.954-15.781h-18.867V312.595z"/>
<g>
	<path style="fill:#1C2042;" d="M236.513,297.117c0-18.058-14.556-32.621-32.802-32.621H176.41c-0.156,0-0.156,0-0.156,0
		c-4.744,0-8.434,3.649-8.434,8.348v89.506c0,4.552,3.691,8.348,8.434,8.348c4.759,0,8.588-3.795,8.588-8.348v-32.913h18.09
		c1.379,0.3,5.363,1.508,8.588,3.638c1.845,1.208,3.676,2.725,4.605,4.398c1.068,1.674,1.689,3.639,1.828,6.52
		c0,8.346,1.087,13.813,3.225,18.211c1.225,2.121,2.916,4.098,4.915,5.312c2.139,1.364,4.433,1.664,5.968,1.664
		c0.156,0,0.156,0,0.156,0c1.535,0,2.76-0.3,3.38-0.456c4.451-1.518,6.9-6.219,5.363-10.615c-0.913-2.578-2.913-4.406-5.363-5.156
		c-0.311-1.517-0.775-4.406-0.62-8.958c0-6.365-1.983-11.977-5.054-16.385c-1.535-2.277-3.38-4.095-5.363-5.612
		C231.906,315.932,236.513,307.129,236.513,297.117z M203.711,312.595h-18.868v-31.258h18.868c8.726,0,15.78,6.984,15.78,15.781
		C219.49,305.61,212.437,312.595,203.711,312.595z"/>
	<path style="fill:#1C2042;" d="M255.999,272.845v89.506c0,4.708,3.673,8.348,8.433,8.348c4.605,0,8.59-3.639,8.59-8.348v-89.506
		c0-4.699-3.984-8.348-8.59-8.348C259.674,264.496,255.999,268.145,255.999,272.845z"/>
	<path style="fill:#1C2042;" d="M327.571,264.496h-27.283h-0.156c-4.604,0-8.433,3.649-8.433,8.348v89.506
		c0,4.552,3.829,8.348,8.433,8.348c4.744,0,8.573-3.795,8.573-8.348v-32.913h18.867c18.246,0,32.974-14.573,32.974-32.319
		C360.545,279.061,345.816,264.496,327.571,264.496z M327.571,312.595h-18.867v-31.258h18.867c8.899,0,15.798,6.984,15.954,15.781
		C343.369,305.61,336.47,312.595,327.571,312.595z"/>
	<path style="fill:#1C2042;" d="M70.57,202.984c4.857,0,8.793-3.937,8.793-8.793c0-39.88,13.294-76.71,35.674-106.306v34.164
		c0,3.007,1.538,5.807,4.076,7.421l38.208,24.287l-11.217,33.967c-1.523,4.612,0.981,9.585,5.594,11.108
		c0.914,0.302,1.844,0.446,2.759,0.446c3.691,0,7.128-2.342,8.349-6.038l13.364-40.472c1.263-3.824-0.234-8.018-3.633-10.179
		l-39.914-25.371V67.93c31.856-31.127,75.394-50.344,123.343-50.344c81.086,0,149.573,54.935,170.225,129.539l-44.427,28.343
		c-1.874,1.196-3.224,3.055-3.782,5.207l-8.845,34.113l-33.296,5.02c-4.802,0.723-8.108,5.203-7.384,10.005
		c0.658,4.358,4.407,7.484,8.683,7.484c0.436,0,0.878-0.033,1.322-0.1l39.039-5.887c3.483-0.525,6.317-3.079,7.201-6.488
		l9.434-36.388l36.075-23.015c1.542,9.366,2.357,18.974,2.357,28.77v66.931c0,4.856,3.936,8.793,8.793,8.793
		c4.857,0,8.793-3.937,8.793-8.793v-66.931C450.157,87.113,363.044,0,255.968,0c-53.739,0-102.445,21.945-137.639,57.341
		c-0.543,0.436-1.028,0.938-1.454,1.489c-34.073,35.004-55.097,82.769-55.097,135.36C61.777,199.047,65.714,202.984,70.57,202.984z"
		/>
	<path style="fill:#1C2042;" d="M70.57,298.982c4.857,0,8.793-3.937,8.793-8.793v-20.145c0-4.856-3.936-8.793-8.793-8.793
		c-4.857,0-8.793,3.937-8.793,8.793v20.145C61.777,295.045,65.714,298.982,70.57,298.982z"/>
	<path style="fill:#1C2042;" d="M334.402,459.095c-4.857,0-8.793,3.937-8.793,8.793s3.936,8.793,8.793,8.793h15.771
		c4.857,0,8.793-3.937,8.793-8.793s-3.936-8.793-8.793-8.793H334.402z"/>
	<path style="fill:#1C2042;" d="M495.993,479.082c4.689-8.854,7.145-18.708,7.145-28.853c0-15.182-5.515-29.092-14.634-39.86
		c5.849-7.163,9.18-16.222,9.18-25.619c0-22.301-18.144-40.445-40.445-40.445c-2.385,0-4.752,0.23-7.081,0.642v-24.228
		c0-4.856-3.936-8.793-8.793-8.793c-4.857,0-8.793,3.937-8.793,8.793l-0.001,36.025c-0.028,0.388-0.023,0.78,0,1.171l-0.002,101.178
		h-39.699c-4.857,0-8.793,3.937-8.793,8.793s3.936,8.793,8.793,8.793h66.221c7.297,0,13.911,2.967,18.712,7.752
		c0.529,0.866,1.216,1.651,2.052,2.311c1.816,2.286,3.278,4.866,4.266,7.671H27.881c1.007-2.857,2.504-5.48,4.368-7.797
		c0.709-0.586,1.305-1.265,1.782-2.008c4.814-4.885,11.493-7.928,18.878-7.928h228.833c4.857,0,8.793-3.937,8.793-8.793
		s-3.936-8.793-8.793-8.793H79.364c0-0.001,0-0.004,0-0.005V350.344c0-4.856-3.936-8.793-8.793-8.793
		c-4.857,0-8.793,3.937-8.793,8.793v38.746c-29.911,4.283-52.979,30.061-52.979,61.137c0,10.167,2.468,20.04,7.175,28.908
		c-4.53,6.928-7.175,15.195-7.175,24.071c0,4.856,3.936,8.793,8.793,8.793h476.818c4.857,0,8.793-3.937,8.793-8.793
		C503.202,494.307,500.544,486.02,495.993,479.082z M61.777,406.922v52.167c0,0.001,0,0.004,0,0.005h-8.866
		c-8.689,0-16.791,2.535-23.628,6.889c-1.905-4.991-2.899-10.313-2.899-15.756C26.384,428.873,41.612,411.011,61.777,406.922z
		 M457.239,361.891c12.605,0,22.859,10.254,22.859,22.859c0,5.156-1.682,10-4.732,13.94c-7.439-4.924-15.998-8.28-25.208-9.599
		v-26.072C452.43,362.281,454.82,361.891,457.239,361.891z M450.157,459.095c0-0.001,0-0.004,0-0.005v-52.167
		c7.596,1.541,14.484,5.041,20.128,9.941c0.068,0.059,0.135,0.121,0.204,0.177c9.223,8.104,15.061,19.973,15.061,33.188
		c0,5.431-0.991,10.741-2.888,15.722c-6.825-4.333-14.909-6.855-23.574-6.855h-8.932V459.095z"/>
</g>
<g>
	<path style="fill:#FFFFFF;" d="M113.706,404.065c-4.856,0-8.793-3.937-8.793-8.793v-39.79c0-4.856,3.937-8.793,8.793-8.793
		c4.856,0,8.793,3.937,8.793,8.793v39.79C122.499,400.128,118.562,404.065,113.706,404.065z"/>
	<path style="fill:#FFFFFF;" d="M113.706,336.064c-4.856,0-8.793-3.937-8.793-8.793v-4.836c0-4.856,3.937-8.793,8.793-8.793
		c4.856,0,8.793,3.937,8.793,8.793v4.836C122.499,332.127,118.562,336.064,113.706,336.064z"/>
</g>
</svg>