<?xml version="1.0" ?>
<!DOCTYPE svg  PUBLIC '-//W3C//DTD SVG 1.1//EN'  'http://www.w3.org/Graphics/SVG/1.1/DTD/svg11.dtd'>
<!-- Uploaded to: SVG Repo, www.svgrepo.com, Generator: SVG Repo Mixer Tools -->
<svg width="800px" height="800px" viewBox="0 0 512 512" version="1.1" xml:space="preserve" xmlns="http://www.w3.org/2000/svg" xmlns:xlink="http://www.w3.org/1999/xlink">
<g id="_x34_93_x2C__calendar_x2C__day_x2C__date_x2C__education">
<g>
<path d="M381,151v120.55c-41.71,4.62-74.83,37.74-79.44,79.45H31V151H381z" style="fill:#FFF2D4;"/>
<polygon points="40.125,160.625 381,160.625 381,151 31,151 31,351 40.125,351   " style="fill:#E5D0A8;"/>
<path d="M391,271c49.71,0,90,40.29,90,90s-40.29,90-90,90c-39.19,0-72.52-25.05-84.87-60    c-3.32-9.38-5.13-19.48-5.13-30c0-3.38,0.19-6.72,0.56-10c4.61-41.71,37.73-74.83,79.44-79.45C384.28,271.19,387.62,271,391,271z" style="fill:#FF7979;"/>
<path d="M316.13,403c-3.32-9.38-5.13-19.48-5.13-30c0-3.38,0.19-6.72,0.56-10    c4.61-41.71,37.73-74.83,79.44-79.45c3.28-0.359,6.62-0.55,10-0.55c24.987,0,47.592,10.183,63.898,26.622    C448.64,286.278,421.608,271,391,271c-3.38,0-6.72,0.19-10,0.55c-41.71,4.62-74.83,37.74-79.44,79.45    c-0.369,3.28-0.56,6.62-0.56,10c0,10.52,1.81,20.62,5.13,30c4.466,12.637,11.686,23.969,20.922,33.302    C322.518,417.776,318.824,410.624,316.13,403z" style="fill:#D65B5B;"/>
<path d="M306.13,391H31v-40h270.56c-0.369,3.28-0.56,6.62-0.56,10C301,371.52,302.81,381.62,306.13,391z" style="fill:#F0F1F1;"/>
<path d="M39.25,359.75h261.768c0.041-2.953,0.219-5.875,0.542-8.75H31v40h8.25V359.75z" style="fill:#DEE0E0;"/>
<rect height="30" style="fill:#E0F8FF;" width="30" x="251" y="281"/>
<rect height="30" style="fill:#E0F8FF;" width="30" x="191" y="281"/>
<rect height="30" style="fill:#E0F8FF;" width="30" x="131" y="281"/>
<rect height="30" style="fill:#E0F8FF;" width="30" x="71" y="281"/>
<rect height="30" style="fill:#E0F8FF;" width="30" x="71" y="191"/>
<polygon points="79.25,199.75 101,199.75 101,191 71,191 71,221 79.25,221   " style="fill:#CCE5E4;"/>
<rect height="30" style="fill:#E0F8FF;" width="30" x="131" y="191"/>
<rect height="30" style="fill:#E0F8FF;" width="30" x="191" y="191"/>
<rect height="30" style="fill:#E0F8FF;" width="30" x="251" y="191"/>
<rect height="30" style="fill:#E0F8FF;" width="30" x="311" y="191"/>
<rect height="40" style="fill:#57606F;" width="40" x="301" y="61"/>
<polygon points="308.75,69.333 341,69.333 341,61 301,61 301,101 308.75,101   " style="fill:#414A56;"/>
<rect height="40" style="fill:#57606F;" width="40" x="71" y="61"/>
<polygon points="78.75,69.333 111,69.333 111,61 71,61 71,101 78.75,101   " style="fill:#414A56;"/>
<polygon points="381,101 381,151 31,151 31,101 71,101 111,101 301,101 341,101   " style="fill:#F0F1F1;"/>
<polygon points="40.25,111.25 80.25,111.25 120.25,111.25 310.25,111.25 350.25,111.25 381,111.25 381,101     341,101 301,101 111,101 71,101 31,101 31,151 40.25,151   " style="fill:#DEE0E0;"/>
<rect height="20" width="20" x="441" y="351"/>
<rect height="20" width="20" x="381" y="411"/>
<rect height="20" width="20" x="381" y="291"/>
<rect height="20" width="20" x="321" y="351"/>
<path d="M31,356c-2.761,0-5-2.238-5-5V151c0-2.761,2.239-5,5-5s5,2.239,5,5v200C36,353.762,33.761,356,31,356z"/>
<path d="M381,276.55c-2.762,0-5-2.238-5-5V151c0-2.761,2.238-5,5-5s5,2.239,5,5v120.55C386,274.312,383.762,276.55,381,276.55z"/>
<path d="M381,156H31c-2.761,0-5-2.239-5-5v-50c0-2.761,2.239-5,5-5h40c2.761,0,5,2.239,5,5s-2.239,5-5,5H36v40h340v-40h-35    c-2.762,0-5-2.239-5-5s2.238-5,5-5h40c2.762,0,5,2.239,5,5v50C386,153.761,383.762,156,381,156z"/>
<path d="M301,106H111c-2.761,0-5-2.239-5-5s2.239-5,5-5h190c2.762,0,5,2.239,5,5S303.762,106,301,106z"/>
<path d="M306.13,396H31c-2.761,0-5-2.238-5-5v-40c0-2.762,2.239-5,5-5h270.56c2.762,0,5,2.238,5,5s-2.238,5-5,5H36v30h270.13    c2.762,0,5,2.238,5,5S308.892,396,306.13,396z"/>
<path d="M391,456c-40.196,0-76.198-25.452-89.584-63.334C297.822,382.515,296,371.86,296,361c0-3.522,0.199-7.075,0.591-10.56    c2.354-21.287,12.027-41.396,27.241-56.609c15.212-15.214,35.319-24.892,56.617-27.251c3.517-0.385,7.064-0.58,10.551-0.58    c52.383,0,95,42.617,95,95S443.383,456,391,456z M391,276c-3.124,0-6.306,0.175-9.455,0.521    c-39.139,4.335-70.689,35.89-75.016,75.029c-0.352,3.124-0.529,6.3-0.529,9.45c0,9.721,1.63,19.253,4.844,28.331    C322.821,423.228,355.033,446,391,446c46.869,0,85-38.131,85-85S437.869,276,391,276z"/>
<path d="M101,226H71c-2.761,0-5-2.239-5-5v-30c0-2.761,2.239-5,5-5h30c2.761,0,5,2.239,5,5v30C106,223.761,103.761,226,101,226z     M76,216h20v-20H76V216z"/>
<path d="M111,106H71c-2.761,0-5-2.239-5-5V61c0-2.761,2.239-5,5-5h40c2.761,0,5,2.239,5,5v40C116,103.761,113.761,106,111,106z     M76,96h30V66H76V96z"/>
<path d="M341,106h-40c-2.762,0-5-2.239-5-5V61c0-2.761,2.238-5,5-5h40c2.762,0,5,2.239,5,5v40C346,103.761,343.762,106,341,106z     M306,96h30V66h-30V96z"/>
<path d="M391,366c-0.969,0-1.936-0.281-2.773-0.84l-30-20c-2.298-1.531-2.919-4.636-1.387-6.934    c1.531-2.298,4.636-2.918,6.934-1.387l27.367,18.245l47.287-28.372c2.367-1.423,5.439-0.652,6.859,1.715    c1.421,2.368,0.653,5.439-1.715,6.859l-50,30C392.779,365.764,391.889,366,391,366z"/>
<polygon points="139.25,199.75 161,199.75 161,191 131,191 131,221 139.25,221   " style="fill:#CCE5E4;"/>
<polygon points="198.417,199.75 220.167,199.75 220.167,191 190.167,191 190.167,221 198.417,221   " style="fill:#CCE5E4;"/>
<polygon points="79.25,289.75 101,289.75 101,281 71,281 71,311 79.25,311   " style="fill:#CCE5E4;"/>
<polygon points="139.25,289.75 161,289.75 161,281 131,281 131,311 139.25,311   " style="fill:#CCE5E4;"/>
<polygon points="198.417,289.75 220.167,289.75 220.167,281 190.167,281 190.167,311 198.417,311   " style="fill:#CCE5E4;"/>
<polygon points="259.25,289.75 281,289.75 281,281 251,281 251,311 259.25,311   " style="fill:#CCE5E4;"/>
<polygon points="259.25,199.75 281,199.75 281,191 251,191 251,221 259.25,221   " style="fill:#CCE5E4;"/>
<polygon points="319.75,199.75 341.5,199.75 341.5,191 311.5,191 311.5,221 319.75,221   " style="fill:#CCE5E4;"/>
<path d="M161,226h-30c-2.761,0-5-2.239-5-5v-30c0-2.761,2.239-5,5-5h30c2.761,0,5,2.239,5,5v30C166,223.761,163.761,226,161,226z     M136,216h20v-20h-20V216z"/>
<path d="M221,226h-30c-2.761,0-5-2.239-5-5v-30c0-2.761,2.239-5,5-5h30c2.761,0,5,2.239,5,5v30C226,223.761,223.761,226,221,226z     M196,216h20v-20h-20V216z"/>
<path d="M281,226h-30c-2.761,0-5-2.239-5-5v-30c0-2.761,2.239-5,5-5h30c2.762,0,5,2.239,5,5v30C286,223.761,283.762,226,281,226z     M256,216h20v-20h-20V216z"/>
<path d="M341,226h-30c-2.762,0-5-2.239-5-5v-30c0-2.761,2.238-5,5-5h30c2.762,0,5,2.239,5,5v30C346,223.761,343.762,226,341,226z     M316,216h20v-20h-20V216z"/>
<path d="M101,316H71c-2.761,0-5-2.238-5-5v-30c0-2.762,2.239-5,5-5h30c2.761,0,5,2.238,5,5v30C106,313.762,103.761,316,101,316z     M76,306h20v-20H76V306z"/>
<path d="M161,316h-30c-2.761,0-5-2.238-5-5v-30c0-2.762,2.239-5,5-5h30c2.761,0,5,2.238,5,5v30C166,313.762,163.761,316,161,316z     M136,306h20v-20h-20V306z"/>
<path d="M221,316h-30c-2.761,0-5-2.238-5-5v-30c0-2.762,2.239-5,5-5h30c2.761,0,5,2.238,5,5v30C226,313.762,223.761,316,221,316z     M196,306h20v-20h-20V306z"/>
<path d="M281,316h-30c-2.761,0-5-2.238-5-5v-30c0-2.762,2.239-5,5-5h30c2.762,0,5,2.238,5,5v30C286,313.762,283.762,316,281,316z     M256,306h20v-20h-20V306z"/>
</g>
</g>
<g id="Layer_1"/>
</svg>