<?xml version="1.0" encoding="iso-8859-1"?>
<!-- Uploaded to: SVG Repo, www.svgrepo.com, Generator: SVG Repo Mixer Tools -->
<svg xmlns="http://www.w3.org/2000/svg" xmlns:xlink="http://www.w3.org/1999/xlink" version="1.1" id="Capa_1"  viewBox="0 0 490.719 490.719" xml:space="preserve" width="512" height="512">
<g id="XMLID_1719_">
	<g id="XMLID_1618_">
		<polyline style="fill:#FFFFFF;" points="23.5,160.749 23.5,436.749 467.5,436.749 467.5,160.749   "/>
	</g>
	<g id="XMLID_1616_">
		<polyline style="fill:#E6E6E6;" points="23.5,160.749 23.5,436.749 168.631,436.749 437.509,160.637   "/>
	</g>
	<g id="XMLID_1717_">
		<rect x="291.397" y="229.947" style="fill:#009245;" width="138.112" height="23.019"/>
	</g>
	<g id="XMLID_1718_">
		<polygon style="fill:#8CC63F;" points="429.509,252.966 345.107,252.966 368.126,229.947 429.509,229.947   "/>
	</g>
	<g id="XMLID_1619_">
		<rect x="61.21" y="199.255" style="fill:#FBB03B;" width="184.149" height="199.495"/>
	</g>
	<g id="XMLID_1683_">
		<rect x="122.593" y="252.966" style="fill:#FFFFFF;" width="38.364" height="69.056"/>
	</g>
	<g id="XMLID_1617_">
		<polygon style="fill:#CCCCCC;" points="467.5,398.75 421.836,436.749 467.5,436.749   "/>
	</g>
	<g id="XMLID_1663_">
		<rect x="160.958" y="252.966" style="fill:#F15A24;" width="30.692" height="38.364"/>
	</g>
	<g id="XMLID_1648_">
		<rect x="91.902" y="252.966" style="fill:#009245;" width="30.691" height="69.056"/>
	</g>
	<g id="XMLID_1620_">
		<path style="fill:#8CC63F;" d="M188.543,297.417c-3.313-4.372-8.914-6.914-15.021-5.843c-6.172,1.083-11.237,6.148-12.32,12.32    c-1.072,6.107,1.471,11.708,5.843,15.021c2.03,1.538,2.03,4.675,0,6.213c-4.372,3.313-6.915,8.914-5.843,15.021    c1.083,6.172,6.148,11.237,12.32,12.32c6.106,1.072,11.708-1.471,15.021-5.843c1.538-2.03,4.675-2.03,6.213,0    c3.313,4.372,8.914,6.914,15.021,5.843c6.172-1.083,11.236-6.148,12.32-12.32c1.072-6.106-1.47-11.708-5.843-15.021    c-2.029-1.538-2.029-4.675,0-6.213c4.372-3.313,6.915-8.914,5.843-15.021c-1.083-6.172-6.148-11.237-12.32-12.32    c-6.107-1.072-11.708,1.47-15.021,5.843C193.218,299.447,190.08,299.447,188.543,297.417z"/>
	</g>
	<g id="XMLID_1615_">
		<polygon style="fill:#FBB03B;" points="398.5,436.749 398.5,382.749 467.5,382.749 467.5,398.75 414.163,436.749   "/>
	</g>
	<g id="XMLID_1561_">
		<rect x="7.5" y="137.872" style="fill:#8CC63F;" width="475.719" height="23.019"/>
	</g>
	<g id="XMLID_1598_">
		<rect x="253.032" y="137.872" style="fill:#009245;" width="230.468" height="23.019"/>
	</g>
	<g id="XMLID_1447_">
		<rect x="7.5" y="53.47" style="fill:#FBB03B;" width="475.719" height="84.402"/>
	</g>
	<g id="XMLID_1546_">
		<circle style="fill:#FFFFFF;" cx="76.556" cy="99.508" r="15.346"/>
	</g>
	<g id="XMLID_1544_">
		<circle style="fill:#FFFFFF;" cx="421.836" cy="99.508" r="15.346"/>
	</g>
	<g id="XMLID_1468_">
		<rect x="7.5" y="107.181" style="fill:#BC842C;" width="475.719" height="30.692"/>
	</g>
	<g id="XMLID_1697_">
		<path d="M76.556,122.353c-12.597,0-22.846-10.249-22.846-22.846s10.249-22.846,22.846-22.846    c12.597,0,22.846,10.249,22.846,22.846S89.153,122.353,76.556,122.353z M76.556,91.662c-4.326,0-7.846,3.52-7.846,7.846    c0,4.326,3.52,7.846,7.846,7.846c4.326,0,7.846-3.52,7.846-7.846C84.402,95.181,80.882,91.662,76.556,91.662z"/>
	</g>
	<g id="XMLID_1701_">
		<path d="M421.836,122.353c-12.597,0-22.846-10.249-22.846-22.846s10.249-22.846,22.846-22.846    c12.597,0,22.846,10.249,22.846,22.846S434.433,122.353,421.836,122.353z M421.836,91.662c-4.326,0-7.846,3.52-7.846,7.846    c0,4.326,3.52,7.846,7.846,7.846c4.326,0,7.846-3.52,7.846-7.846C429.682,95.181,426.162,91.662,421.836,91.662z"/>
	</g>
	<g id="XMLID_1702_">
		<rect x="107.5" y="99.749" width="283" height="15"/>
	</g>
	<g id="XMLID_1704_">
		<path d="M252.859,406.251H53.71V191.756h199.149V406.251z M68.71,391.251h169.149V206.756H68.71V391.251z"/>
	</g>
	<g id="XMLID_1276_">
		<rect x="284.5" y="192.749" style="fill:#F15A24;" width="153" height="15"/>
	</g>
	<g id="XMLID_1268_">
		<path d="M437.009,260.466H283.897v-38.019h153.112V260.466z M298.897,245.466h123.112v-8.019H298.897V245.466z"/>
	</g>
	<g id="XMLID_1281_">
		<rect x="284.5" y="276.749" width="14" height="15"/>
	</g>
	<g id="XMLID_1286_">
		<rect x="306.5" y="276.749" width="16" height="15"/>
	</g>
	<g id="XMLID_1287_">
		<rect x="329.5" y="276.749" width="16" height="15"/>
	</g>
	<g id="XMLID_1288_">
		<rect x="353.5" y="276.749" width="15" height="15"/>
	</g>
	<g id="XMLID_1294_">
		<rect x="375.5" y="276.749" width="15" height="15"/>
	</g>
	<g id="XMLID_1296_">
		<rect x="398.5" y="276.749" style="fill:#F15A24;" width="16" height="15"/>
	</g>
	<g id="XMLID_1297_">
		<rect x="421.5" y="276.749" style="fill:#F15A24;" width="16" height="15"/>
	</g>
	<g id="XMLID_1346_">
		<rect x="284.5" y="299.749" width="14" height="15"/>
	</g>
	<g id="XMLID_1345_">
		<rect x="306.5" y="299.749" width="16" height="15"/>
	</g>
	<g id="XMLID_1339_">
		<rect x="329.5" y="299.749" width="16" height="15"/>
	</g>
	<g id="XMLID_1302_">
		<rect x="353.5" y="299.749" width="15" height="15"/>
	</g>
	<g id="XMLID_1300_">
		<rect x="375.5" y="299.749" width="15" height="15"/>
	</g>
	<g id="XMLID_1299_">
		<rect x="398.5" y="299.749" style="fill:#F15A24;" width="16" height="15"/>
	</g>
	<g id="XMLID_1298_">
		<rect x="421.5" y="299.749" style="fill:#F15A24;" width="16" height="15"/>
	</g>
	<g id="XMLID_1358_">
		<rect x="284.5" y="323.749" width="14" height="15"/>
	</g>
	<g id="XMLID_1353_">
		<rect x="306.5" y="323.749" width="16" height="15"/>
	</g>
	<g id="XMLID_1351_">
		<rect x="329.5" y="323.749" style="fill:#009245;" width="16" height="15"/>
	</g>
	<g id="XMLID_1350_">
		<rect x="353.5" y="323.749" width="15" height="15"/>
	</g>
	<g id="XMLID_1349_">
		<rect x="375.5" y="323.749" width="15" height="15"/>
	</g>
	<g id="XMLID_1348_">
		<rect x="398.5" y="323.749" style="fill:#F15A24;" width="16" height="15"/>
	</g>
	<g id="XMLID_1347_">
		<rect x="421.5" y="323.749" style="fill:#F15A24;" width="16" height="15"/>
	</g>
	<g id="XMLID_1371_">
		<rect x="284.5" y="345.749" width="14" height="15"/>
	</g>
	<g id="XMLID_1370_">
		<rect x="306.5" y="345.749" width="16" height="15"/>
	</g>
	<g id="XMLID_1369_">
		<rect x="329.5" y="345.749" width="16" height="15"/>
	</g>
	<g id="XMLID_1368_">
		<rect x="353.5" y="345.749" width="15" height="15"/>
	</g>
	<g id="XMLID_1367_">
		<rect x="375.5" y="345.749" width="15" height="15"/>
	</g>
	<g id="XMLID_1361_">
		<rect x="398.5" y="345.749" style="fill:#F15A24;" width="16" height="15"/>
	</g>
	<g id="XMLID_1360_">
		<rect x="421.5" y="345.749" style="fill:#F15A24;" width="16" height="15"/>
	</g>
	<g>
		<path d="M0,45.97v99.401h490.719V45.97H0z M475.719,99.749H459.5v15h16.219v15.623H15v-15.623h22.5v-15H15V60.97h460.719V99.749z"/>
		<path d="M7.5,168.749h8v276h459v-276h9v-15H7.5V168.749z M405.5,429.749v-39h54v4.186l-47.779,34.814H405.5z M459.5,429.749    h-22.307l22.307-16.253V429.749z M30.5,168.749h429v207h-69v54h-360V168.749z"/>
	</g>
	<path d="M229.483,302.597c-1.619-9.222-9.19-16.792-18.41-18.409c-4.34-0.761-8.674-0.271-12.574,1.287v-39.726h-115v85h70.945   c-1.023,3.391-1.271,7.042-0.63,10.696c1.619,9.222,9.189,16.793,18.411,18.41c1.355,0.238,2.71,0.355,4.052,0.355   c2.484,0,4.914-0.421,7.222-1.186v23.725h15v-24.179c3.899,1.559,8.233,2.05,12.573,1.286c9.221-1.617,16.792-9.188,18.411-18.41   c1.25-7.121-0.854-14.237-5.561-19.424C228.629,316.836,230.733,309.718,229.483,302.597z M183.5,285.001   c-3.553-1.176-7.411-1.492-11.274-0.813c-1.636,0.287-3.217,0.77-4.726,1.408v-24.847h16V285.001z M152.5,315.749h-23v-55h23   V315.749z M98.5,260.749h16v55h-16V260.749z M211.724,331.105c2.401,1.819,3.517,4.715,2.985,7.746   c-0.539,3.071-3.159,5.691-6.229,6.231c-3.032,0.527-5.927-0.584-7.747-2.985c-2.163-2.854-5.474-4.492-9.083-4.492   c0,0-0.001,0-0.001,0c-3.609,0-6.92,1.637-9.085,4.492c-1.819,2.401-4.716,3.513-7.746,2.985c-3.07-0.539-5.69-3.159-6.229-6.231   c-0.532-3.031,0.584-5.927,2.983-7.744c2.856-2.163,4.494-5.474,4.495-9.084c0-3.61-1.637-6.922-4.493-9.086   c-2.401-1.819-3.517-4.715-2.985-7.746c0.539-3.07,3.159-5.69,6.23-6.229c0.499-0.087,0.993-0.13,1.48-0.13   c2.474,0,4.745,1.108,6.265,3.114l0.001,0.002c2.164,2.854,5.475,4.492,9.085,4.491c3.609,0,6.92-1.638,9.084-4.493   c1.819-2.4,4.716-3.511,7.746-2.984c3.07,0.539,5.69,3.159,6.229,6.229c0.532,3.031-0.584,5.927-2.986,7.746   c-2.855,2.164-4.492,5.476-4.492,9.086C207.232,325.633,208.87,328.943,211.724,331.105z"/>
</g>















</svg>