<?xml version="1.0" encoding="iso-8859-1"?>
<!-- Uploaded to: SVG Repo, www.svgrepo.com, Generator: SVG Repo Mixer Tools -->
<svg version="1.1" id="Layer_1" xmlns="http://www.w3.org/2000/svg" xmlns:xlink="http://www.w3.org/1999/xlink" 
	 viewBox="0 0 480 480" xml:space="preserve">
<g>
	<path style="fill:#EBC858;" d="M328,64.056c2.336-3.144,5.104-5.912,8.248-8.248c-3.144-2.336-5.912-5.104-8.248-8.248
		c-2.336,3.144-5.104,5.912-8.248,8.248C322.896,58.152,325.664,60.92,328,64.056z"/>
	<path style="fill:#EBC858;" d="M162.936,70.4l30-10c-7.456-11.704-17.352-21.672-29-29.208L146.56,48.56L162.936,70.4z"/>
	<circle style="fill:#EBC858;" cx="304" cy="407.808" r="24"/>
</g>
<polygon style="fill:#4E82A2;" points="324,288.496 464,148.496 464,131.12 315.312,279.808 "/>
<g>
	<path style="fill:#EBC858;" d="M195.312,104h12.28c-0.848-8-3.248-20.104-7.056-29.176l-25.728,8.624L195.312,104z"/>
	<path style="fill:#EBC858;" d="M304,351.808c-30.872,0-56,25.12-56,56s25.128,56,56,56s56-25.12,56-56S334.872,351.808,304,351.808
		z M304,447.808c-22.056,0-40-17.944-40-40s17.944-40,40-40s40,17.944,40,40S326.056,447.808,304,447.808z"/>
</g>
<polygon style="fill:#DA544A;" points="344,308.496 464,188.496 464,171.12 335.312,299.808 "/>
<g>
	<polygon style="fill:#EBC858;" points="160,91.312 147.312,104 172.688,104 	"/>
	<path style="fill:#EBC858;" d="M77.44,48.56L60.064,31.192c-11.648,7.528-21.536,17.504-29,29.208l30,10L77.44,48.56z"/>
</g>
<polygon style="fill:#4E82A2;" points="179.088,183.68 307.312,312 324.688,312 185.912,173.176 "/>
<g>
	<path style="fill:#EBC858;" d="M132.688,40l16.496-16.592c-11.44-4.824-24.008-7.552-37.184-7.552S86.256,18.6,74.816,23.432
		L91.312,40H132.688z"/>
	<path style="fill:#EBC858;" d="M49.192,83.4l-25.728-8.528C19.648,83.944,17.256,96,16.408,104h12.28L49.192,83.4z"/>
</g>
<path style="fill:#DA544A;" d="M284.688,312L170.48,197.696c-2.16,3.696-4.224,7.472-6.136,11.288L267.312,312H284.688z"/>
<path style="fill:#EBC858;" d="M136,120H22.704l39.72,61.28c26.992,41.72,38.664,91.928,32.864,141.28
	C90.544,362.816,74.672,400,49.272,432h125.456c-25.4-32-41.264-69.224-46.008-109.488c-5.8-49.352,5.864-99.472,32.856-141.192
	l39.72-61.32H136z M88,151.808H72v-16h16V151.808z M120,151.808h-16v-16h16V151.808z M152,151.808h-16v-16h16V151.808z"/>
<polygon style="fill:#4E82A2;" points="420.688,152 199.648,152 194.8,159.488 203.312,168 404.688,168 "/>
<g>
	<path style="fill:#EBC858;" d="M24,448c-4.416,0-8,3.4-8,7.808V464h192v-8.192c0-4.408-3.584-7.808-8-7.808h-8H32H24z"/>
	<polygon style="fill:#EBC858;" points="51.312,104 76.688,104 64,91.312 	"/>
	<polygon style="fill:#EBC858;" points="124.688,104 149.44,79.248 132,56 92,56 74.56,79.248 99.312,104 	"/>
	<path style="fill:#EBC858;" d="M424,367.56c-2.336,3.144-5.104,5.912-8.248,8.248c3.136,2.336,5.912,5.104,8.248,8.248
		c2.336-3.144,5.104-5.912,8.248-8.248C429.104,373.472,426.336,370.704,424,367.56z"/>
</g>
<polygon style="fill:#DA544A;" points="452.688,120 220.352,120 210,136 436.688,136 "/>
<g>
	<path style="fill:#EBC858;" d="M248,40.056c2.336-3.144,5.104-5.912,8.248-8.248c-3.144-2.336-5.912-5.104-8.248-8.248
		c-2.336,3.144-5.104,5.912-8.248,8.248C242.896,34.152,245.664,36.92,248,40.056z"/>
	<path style="fill:#EBC858;" d="M32,304.056c2.336-3.144,5.104-5.912,8.248-8.248c-3.144-2.336-5.912-5.104-8.248-8.248
		c-2.336,3.144-5.104,5.912-8.248,8.248C26.896,298.152,29.664,300.92,32,304.056z"/>
</g>
<g>
	<path style="fill:#334C5B;" d="M304,367.808c-22.056,0-40,17.944-40,40s17.944,40,40,40s40-17.944,40-40
		C344,385.76,326.056,367.808,304,367.808z M304,431.808c-13.232,0-24-10.768-24-24s10.768-24,24-24s24,10.768,24,24
		S317.232,431.808,304,431.808z"/>
	<path style="fill:#334C5B;" d="M475.064,104.424c-0.992-0.416-3.064-0.544-3.064-0.536V104H223.592C219.464,48,171.056,0,112,0
		C50.24,0,0,48,0,112h0.032c0,0,0.392,2.936,1.248,4.256l47.704,73.672c24.976,38.6,35.784,84.984,30.408,130.656
		C74.784,359.768,58.768,396.4,33.08,426.368L28.312,432H24c-13.232,0-24,10.576-24,23.808v16C0,476.232,3.576,480,8,480h208
		c4.424,0,8-3.768,8-8.192v-16C224,442.576,213.232,432,200,432h-4.32l-4.768-5.656c-25.68-29.968-41.696-66.56-46.304-105.752
		c-3.848-32.704,0.736-65.768,12.752-96.096L256,323.12v31.176c-16,13.192-24,32.264-24,53.512c0,39.696,32.296,72,72,72
		s72-32.304,72-72c0-21.248-8-40.32-24-53.512V323.12l125.656-125.656c1.496-1.496,2.344-3.536,2.344-5.656v-80
		C480,108.576,478.056,105.656,475.064,104.424z M220.352,120h232.336l-16,16H210L220.352,120z M307.312,312L179.088,183.68
		l6.824-10.504L324.688,312H307.312z M336,328v15.408c-8-4.816-20.496-7.6-32-7.6s-24,2.776-32,7.6V328H336z M219.312,184h169.376
		L304,268.688L219.312,184z M203.312,168l-8.512-8.512l4.848-7.488h221.04l-16,16H203.312z M207.592,104h-12.28l-20.504-20.6
		l25.728-8.528C204.352,83.944,206.744,96,207.592,104z M192.936,60.4l-30,10L146.56,48.56l17.368-17.368
		C175.584,38.72,185.472,48.696,192.936,60.4z M74.56,79.248L92,56h40l17.44,23.248L124.688,104H99.312L74.56,79.248z M76.688,104
		H51.312L64,91.312L76.688,104z M160,91.312L172.688,104h-25.376L160,91.312z M112,15.808c13.176,0,25.744,2.768,37.184,7.6
		L132.688,40H91.312L74.816,23.408C86.256,18.584,98.824,15.808,112,15.808z M60.064,31.192L77.44,48.56L61.064,70.4l-30-10
		C38.528,48.696,48.416,38.72,60.064,31.192z M23.464,74.824l25.728,8.624L28.688,104h-12.28C17.256,96,19.648,83.896,23.464,74.824
		z M192,448h8c4.416,0,8,3.4,8,7.808V464H16v-8.192C16,451.4,19.584,448,24,448h8H192z M128.72,322.512
		C133.464,362.776,149.328,400,174.728,432H49.272c25.4-32,41.272-69.224,46.008-109.488c5.8-49.352-5.864-99.464-32.864-141.184
		L22.704,120H136h65.296l-39.72,61.32C134.584,223.048,122.912,273.16,128.72,322.512z M164.352,208.944
		c1.904-3.816,3.976-7.496,6.136-11.192L284.688,312h-17.376L164.352,208.944z M360,407.808c0,30.88-25.128,56-56,56
		s-56-25.12-56-56s25.128-56,56-56S360,376.928,360,407.808z M464,188.496l-120,120l-8.688-8.688L464,171.12V188.496z M464,148.496
		l-140,140l-8.688-8.688L464,131.12V148.496z"/>
	<rect x="104" y="135.808" style="fill:#334C5B;" width="16" height="16"/>
	<rect x="136" y="135.808" style="fill:#334C5B;" width="16" height="16"/>
	<rect x="72" y="135.808" style="fill:#334C5B;" width="16" height="16"/>
	<path style="fill:#334C5B;" d="M320,88h16c0-16,8-24.192,24-24.192v-16c-16,0-24-7.808-24-23.808h-16c0,16-8,23.808-24,23.808v16
		C312,63.808,320,72,320,88z M328,47.56c2.336,3.144,5.104,5.912,8.248,8.248c-3.144,2.344-5.912,5.112-8.248,8.248
		c-2.336-3.144-5.104-5.912-8.248-8.248C322.896,53.472,325.664,50.704,328,47.56z"/>
	<path style="fill:#334C5B;" d="M432,344h-16c0,16-8,23.808-24,23.808v16c16,0,24,8.192,24,24.192h16c0-16,8-24.192,24-24.192v-16
		C440,367.808,432,360,432,344z M424,384.056c-2.336-3.144-5.104-5.912-8.248-8.248c3.136-2.336,5.912-5.104,8.248-8.248
		c2.336,3.144,5.104,5.912,8.248,8.248C429.104,378.152,426.336,380.92,424,384.056z"/>
	<path style="fill:#334C5B;" d="M24,328h16c0-16,8-24.192,24-24.192v-16c-16,0-24-7.808-24-23.808H24c0,16-8,23.808-24,23.808v16
		C16,303.808,24,312,24,328z M32,287.56c2.336,3.144,5.104,5.912,8.248,8.248c-3.144,2.344-5.912,5.112-8.248,8.248
		c-2.336-3.144-5.104-5.912-8.248-8.248C26.896,293.472,29.664,290.704,32,287.56z"/>
	<path style="fill:#334C5B;" d="M240,64h16c0-16,8-24.192,24-24.192v-16C264,23.808,256,16,256,0h-16c0,16-8,23.808-24,23.808v16
		C232,39.808,240,48,240,64z M248,23.56c2.336,3.144,5.104,5.912,8.248,8.248c-3.144,2.344-5.912,5.112-8.248,8.248
		c-2.336-3.144-5.104-5.912-8.248-8.248C242.896,29.472,245.664,26.704,248,23.56z"/>
</g>
</svg>