<?xml version="1.0" encoding="iso-8859-1"?>
<!-- Uploaded to: SVG Repo, www.svgrepo.com, Generator: SVG Repo Mixer Tools -->
<svg version="1.1" id="Layer_1" xmlns="http://www.w3.org/2000/svg" xmlns:xlink="http://www.w3.org/1999/xlink" 
	 viewBox="0 0 512 512" xml:space="preserve">
<g>
	<polygon style="fill:#C9C9C9;" points="388,446.672 388,512 476.608,512 476.608,446.672 512,446.672 432.304,349.704 
		352.608,446.672 	"/>
	<polygon style="fill:#C9C9C9;" points="211.696,446.672 211.696,512 300.304,512 300.304,446.672 335.696,446.672 256,349.704 
		176.304,446.672 	"/>
	<polygon style="fill:#C9C9C9;" points="35.392,446.672 35.392,512 124,512 124,446.672 159.392,446.672 79.696,349.704 0,446.672 	
		"/>
</g>
<rect x="117.384" y="195.824" style="fill:#E21B1B;" width="36.96" height="85.664"/>
<rect x="177.44" y="146.864" width="36.96" height="134.632"/>
<rect x="237.512" y="91.792" style="fill:#E21B1B;" width="36.96" height="189.696"/>
<rect x="297.6" y="36.72" width="36.96" height="244.768"/>
<rect x="357.656" style="fill:#E21B1B;" width="36.96" height="281.52"/>
</svg>